<svg width="34" height="34" viewBox="0 0 34 34" fill="none" xmlns="http://www.w3.org/2000/svg">
<path d="M16.9986 2.82342C9.1885 2.82483 2.83333 9.18 2.83192 16.9915C2.83192 24.803 9.18708 31.1582 17 31.1582C24.8115 31.1567 31.1667 24.8016 31.1667 16.9915C31.1667 9.18 24.8115 2.82483 16.9986 2.82342V2.82342ZM17 28.3248C10.7497 28.3248 5.66525 23.2404 5.66525 16.9915C5.66667 10.7426 10.7511 5.65817 16.9986 5.65675C23.2489 5.65817 28.3333 10.7426 28.3333 16.9915C28.3333 23.239 23.2489 28.3234 17 28.3248Z" fill="#E5DA00"/>
<path d="M17.017 11.3177L11.3433 16.9915L17.017 22.6638V18.4082H22.6752V15.5748H17.017V11.3177Z" fill="#E5DA00"/>
</svg>
