<svg width="80" height="60" viewBox="0 0 80 60" fill="none" xmlns="http://www.w3.org/2000/svg">
<g clip-path="url(#clip0)">
<path d="M49.6012 15.4144C49.6981 15.6828 49.8646 15.9343 50.0912 16.1544C50.3178 16.3745 50.6 16.559 50.9217 16.6973C51.2434 16.8355 51.5982 16.9249 51.966 16.9602C52.3338 16.9955 52.7072 16.9761 53.065 16.9032L62.55 14.9747C62.9076 14.9023 63.2427 14.7778 63.5361 14.6082C63.8296 14.4386 64.0755 14.2274 64.26 13.9864C64.4445 13.7455 64.5638 13.4797 64.6112 13.2042C64.6586 12.9286 64.6331 12.6488 64.5362 12.3806L62.815 7.6069C62.619 7.06466 62.1438 6.60302 61.494 6.32348C60.8442 6.04395 60.073 5.96942 59.35 6.11627L49.865 8.04471C49.1429 8.19238 48.5283 8.54876 48.156 9.03573C47.7837 9.5227 47.684 10.1005 47.8787 10.6425L49.6012 15.4144Z" fill="#405866"/>
<path d="M30.515 15.5447C30.3179 16.0856 29.8428 16.5459 29.194 16.8246C28.5453 17.1033 27.7756 17.1777 27.0538 17.0316L17.57 15.1032C17.2121 15.031 16.8768 14.9066 16.5831 14.7371C16.2894 14.5676 16.0431 14.3564 15.8584 14.1154C15.6737 13.8745 15.5541 13.6086 15.5066 13.333C15.459 13.0573 15.4844 12.7774 15.5813 12.5091L17.3038 7.73629C17.5 7.19426 17.9753 6.7329 18.6252 6.45371C19.275 6.17451 20.046 6.10035 20.7688 6.24754L30.2513 8.17597C30.6091 8.24847 30.9444 8.37312 31.2381 8.54282C31.5317 8.71252 31.7779 8.92394 31.9626 9.165C32.1472 9.40606 32.2668 9.67204 32.3144 9.94776C32.362 10.2235 32.3367 10.5035 32.24 10.7719L30.515 15.5447" fill="#405866"/>
<path d="M38.0525 10.0069C38.7413 11.4056 39.5888 13.26 40.0525 15.1969C40.545 17.2856 39.5063 18.435 37.5525 19.7194C36.98 20.0916 36.785 20.6419 37.0375 21.1584C37.3038 21.6863 37.9925 22.0556 38.715 22.0556C39.1313 22.0556 39.53 21.9394 39.8688 21.7163C41.535 20.6278 42.78 19.6116 43.4375 18.1828C44.22 16.4944 43.5813 14.5238 43.1088 13.0847C42.5813 11.4797 41.8138 9.90938 41.0663 8.38782L40.8588 7.97063C39.7463 5.70376 39.4813 3.99657 41.385 1.97063C41.7713 1.55345 41.8275 1.06876 41.5338 0.638446C40.9613 -0.187492 39.22 -0.331867 38.4675 0.470633C37.38 1.62563 36.275 3.07782 36.3188 5.07095C36.3588 6.62063 37.0875 8.07095 37.7925 9.47532L38.0588 10.005" fill="#354A54"/>
<path d="M38.4288 21.2073C38.1725 20.6936 38.37 20.1423 38.94 19.7692C40.8975 18.4867 41.9375 17.3354 41.44 15.2486C40.9813 13.3117 40.1313 11.4611 39.4438 10.0586L39.1775 9.52701C38.4775 8.12357 37.745 6.67326 37.7075 5.12357C37.66 3.1267 38.765 1.67732 39.855 0.523259C40.0275 0.334821 40.2575 0.202634 40.5088 0.113571C39.7613 -0.132054 38.7963 -0.0242414 38.285 0.523259C37.1963 1.67638 36.0963 3.1267 36.1363 5.12357C36.1788 6.67326 36.9013 8.12357 37.61 9.52701L37.8713 10.0586C38.565 11.4573 39.4138 13.3117 39.8738 15.2486C40.3663 17.3354 39.3275 18.4867 37.3738 19.7692C36.7988 20.1423 36.6038 20.6936 36.8625 21.2073C37.1225 21.737 37.8113 22.1073 38.5325 22.1073C38.8025 22.1073 39.0663 22.0501 39.315 21.9536C38.9059 21.7961 38.5895 21.5301 38.4275 21.2073" fill="#405866"/>
<path d="M7.46998 15.4509C17.95 2.53214 33.745 11.519 33.745 11.519C34.7687 12.0984 36.6575 12.5765 37.9362 12.5803L42.1712 12.5821C43.455 12.5821 45.345 12.1059 46.3662 11.5228C46.3662 11.5228 62.16 2.53776 72.6412 15.4528C83.13 28.3668 78.9037 42.4303 78.9037 42.4303C78.16 45.8746 75.7225 48.1725 71.1187 47.8809C66.5287 47.5931 56.5675 38.6109 56.5675 38.6109C55.7475 37.8693 54.0237 37.2637 52.7375 37.2637L27.38 37.259C26.1012 37.259 24.3787 37.8646 23.5562 38.6024C23.5562 38.6024 13.5875 47.5931 8.99748 47.8799C4.39498 48.1687 1.95373 45.8662 1.21998 42.4256C1.21998 42.4275 -3.01127 28.364 7.46998 15.4509" fill="#060817"/>
<path d="M13.09 42.375C13.09 42.375 8.85873 28.3125 19.3387 15.3993C21.9612 12.1687 24.915 10.3068 27.8725 9.33278C22.32 7.88059 13.8225 7.50559 7.35248 15.4781C-3.12377 28.3959 1.10248 42.4556 1.10248 42.4556C1.83873 45.9 4.28373 48.1987 8.87998 47.9072C10.365 47.8181 12.4112 46.8112 14.5012 45.4997C13.8112 44.6372 13.3462 43.5778 13.0912 42.375" fill="#060817"/>
<path d="M49.8087 12.5242H54.0412C55.3212 12.5279 57.21 12.0498 58.2325 11.4695C58.2325 11.4695 60.4212 10.2254 63.7087 9.32732C54.9462 6.60576 46.2487 11.5511 46.2487 11.5511C46.175 11.5914 46.1 11.6326 46.02 11.6711C47.0862 12.1558 48.68 12.5233 49.8075 12.5233" fill="#060817"/>
<path d="M68.4312 38.5593C67.615 37.8177 65.8912 37.2112 64.6075 37.2112L39.25 37.2093C38.95 37.2131 38.6516 37.2418 38.36 37.2946H52.6225C53.9037 37.2946 55.6312 37.9002 56.4487 38.6418C56.4487 38.6418 66.4125 47.6277 71.0025 47.9155C74.0662 48.1077 76.1687 47.1524 77.4525 45.4752C73.055 42.7255 68.4312 38.5593 68.4312 38.5593" fill="#060817"/>
<path d="M29.6975 22.0022C29.668 21.7178 29.6559 21.4325 29.6612 21.1472C29.6592 21.1006 29.6744 21.0546 29.705 21.0141C29.5657 20.8098 29.3904 20.6206 29.1837 20.4516C29.1395 20.4186 29.1072 20.3777 29.0899 20.3327C29.0726 20.2878 29.0709 20.2403 29.085 20.1947H23.825V16.2263H18.1425V20.1947H13.5787V24.5222H18.1425V27.7331H23.825V24.5222H29.3875C29.42 23.7356 29.675 22.9491 29.8012 22.1653C29.7409 22.1225 29.7039 22.0643 29.6975 22.0022Z" fill="#A2ABAF"/>
<path d="M23.85 16.1194C23.85 15.5072 23.19 15.0103 22.3762 15.0103H19.625C18.8112 15.0103 18.1462 15.5072 18.1462 16.1194C18.1462 16.7297 18.81 17.2266 19.625 17.2266H22.3762C22.5699 17.2264 22.7617 17.1977 22.9406 17.142C23.1195 17.0863 23.282 17.0047 23.4189 16.9019C23.5557 16.7991 23.6642 16.6771 23.7382 16.5428C23.8122 16.4085 23.8502 16.2647 23.85 16.1194" fill="#A2ABAF"/>
<path d="M13.5787 24.4594V20.1984H18.0987V17.1375H23.8687V20.1984H29.1625V24.4594H23.8687V27.7369H18.0987V24.4594H13.5787Z" fill="#A2ABAF"/>
<path d="M29.3063 24.4688C30.1213 24.4688 30.7825 23.9728 30.7825 23.3606V21.2991C30.7668 21.0133 30.6044 20.7432 30.3293 20.5451C30.0542 20.3471 29.6876 20.2365 29.3063 20.2365C28.9249 20.2365 28.5584 20.3471 28.2832 20.5451C28.0081 20.7432 27.8457 21.0133 27.83 21.2991V23.3606C27.8297 23.5061 27.8676 23.6503 27.9417 23.7848C28.0158 23.9193 28.1245 24.0415 28.2616 24.1444C28.3987 24.2473 28.5616 24.329 28.7408 24.3846C28.9201 24.4403 29.1123 24.4689 29.3063 24.4688" fill="#A2ABAF"/>
<path d="M12.2675 22.7157C12.3063 23.0016 12.3063 23.2838 12.3063 23.5697C12.3081 23.6158 12.2925 23.6613 12.2613 23.701C12.3963 23.8988 12.5675 24.0882 12.7788 24.2653C12.8775 24.346 12.9088 24.4388 12.88 24.5203H18.1388V28.4897H23.825V24.5203H28.3863V20.1938H23.825V16.9857H18.1388V20.1938H12.5763C12.5475 20.9813 12.2913 21.7669 12.1663 22.5497C12.2254 22.5942 12.2613 22.653 12.2675 22.7157" fill="#A2ABAF"/>
<path d="M18.1163 28.5966C18.1163 29.2088 18.7813 29.7066 19.6013 29.7066H22.3463C23.1613 29.7066 23.825 29.2088 23.825 28.5966C23.825 27.9882 23.1613 27.4885 22.3463 27.4885H19.6013C18.7813 27.4885 18.1163 27.9882 18.1163 28.5966" fill="#A2ABAF"/>
<path d="M28.3862 20.2585V24.5194H23.8662V27.5822H18.0937V24.5194H12.8025V20.2585H18.0937V16.9857H23.8662V20.2585H28.3862" fill="#A2ABAF"/>
<path d="M12.66 20.2453C12.4662 20.2453 12.2743 20.2739 12.0953 20.3296C11.9162 20.3853 11.7536 20.4668 11.6166 20.5696C11.4796 20.6725 11.371 20.7945 11.2969 20.9289C11.2229 21.0632 11.1848 21.2071 11.185 21.3525V23.4131C11.185 23.7068 11.3405 23.9884 11.6174 24.196C11.8942 24.4037 12.2697 24.5203 12.6612 24.5203C13.0528 24.5203 13.4283 24.4037 13.7051 24.196C13.982 23.9884 14.1375 23.7068 14.1375 23.4131V21.3525C14.1377 21.207 14.0995 21.0629 14.0253 20.9284C13.9511 20.794 13.8423 20.6718 13.705 20.569C13.5678 20.4661 13.4048 20.3846 13.2255 20.3291C13.0462 20.2735 12.854 20.2451 12.66 20.2453" fill="#A2ABAF"/>
<path d="M29 21.6188C28.9672 21.3348 28.9526 21.0498 28.9562 20.7647C28.9562 20.7132 28.9762 20.6701 29 20.6335C28.8621 20.4291 28.6875 20.2399 28.4812 20.071C28.4386 20.0374 28.4073 19.9966 28.3901 19.9521C28.3729 19.9075 28.3703 19.8605 28.3825 19.8151H23.1287V15.8466H17.4462V19.8151H12.8762V24.1444H17.4462V27.3507H23.1287V24.1444H28.6862C28.7187 23.3541 28.9762 22.5676 29.1 21.7847C29.0404 21.7406 29.0048 21.6815 29 21.6188" fill="#CBD5DC"/>
<path d="M23.1412 15.7397C23.1412 15.1294 22.4787 14.6325 21.665 14.6325H18.915C18.7213 14.6326 18.5295 14.6614 18.3506 14.7171C18.1717 14.7728 18.0092 14.8544 17.8724 14.9572C17.7355 15.06 17.627 15.182 17.553 15.3163C17.4791 15.4505 17.4411 15.5944 17.4412 15.7397C17.4409 15.885 17.4788 16.029 17.5527 16.1634C17.6266 16.2978 17.735 16.4199 17.8719 16.5228C18.0088 16.6257 18.1713 16.7074 18.3503 16.7632C18.5293 16.8189 18.7212 16.8477 18.915 16.8478H21.665C22.4787 16.8478 23.1412 16.3519 23.1412 15.7397Z" fill="#CBD5DC"/>
<path d="M12.8712 24.0806V19.8178H17.395V16.7587H23.1637V19.8178H28.4575V24.0806H23.1637V27.3534H17.395V24.0806H12.8712" fill="#CBD5DC"/>
<path d="M28.5975 24.0947C29.42 24.0947 30.0787 23.5969 30.0787 22.9847V20.9241C30.0789 20.7783 30.0406 20.634 29.9662 20.4994C29.8918 20.3647 29.7826 20.2425 29.6449 20.1396C29.5073 20.0367 29.3439 19.9552 29.1641 19.8999C28.9844 19.8445 28.7918 19.8163 28.5975 19.8169C27.7862 19.8169 27.1212 20.311 27.1212 20.9241V22.9847C27.1212 23.5969 27.7862 24.0947 28.5975 24.0947Z" fill="#CBD5DC"/>
<path d="M11.565 22.3369C11.5975 22.621 11.6 22.9078 11.6 23.19C11.5993 23.2364 11.5866 23.2823 11.5625 23.325C11.6937 23.5228 11.8625 23.7094 12.0737 23.8866C12.1737 23.9672 12.2025 24.06 12.175 24.1435H17.4337V28.11H23.1162V24.1435H27.68V19.816H23.1162V16.606H17.4337V19.816H11.8775C11.8462 20.6035 11.5837 21.39 11.465 22.1719C11.5219 22.217 11.5571 22.2751 11.565 22.3369" fill="#CBD5DC"/>
<path d="M17.4175 28.2187C17.4165 28.3646 17.454 28.5091 17.5277 28.644C17.6015 28.7789 17.7101 28.9016 17.8473 29.0049C17.9845 29.1083 18.1476 29.1902 18.3272 29.2461C18.5068 29.302 18.6993 29.3307 18.8937 29.3306H21.6412C22.0255 29.3222 22.3903 29.2018 22.6581 28.995C22.926 28.7882 23.0758 28.5113 23.0758 28.223C23.0758 27.9346 22.926 27.6577 22.6581 27.4509C22.3903 27.2441 22.0255 27.1237 21.6412 27.1153H18.8937C18.0762 27.1153 17.4175 27.6094 17.4175 28.2187" fill="#CBD5DC"/>
<path d="M27.675 19.875V24.1378H23.1587V27.1969H17.3862V24.1378H12.0975V19.875H17.3862V16.6003H23.1587V19.875H27.675Z" fill="#CBD5DC"/>
<path d="M11.955 19.8657C11.1412 19.8657 10.475 20.3616 10.475 20.9766V23.0353C10.4862 23.3238 10.6468 23.5976 10.9228 23.7987C11.1988 23.9997 11.5684 24.1122 11.9531 24.1122C12.3378 24.1122 12.7074 23.9997 12.9834 23.7987C13.2594 23.5976 13.42 23.3238 13.4312 23.0353V20.9766C13.4312 20.3625 12.7712 19.8657 11.955 19.8657Z" fill="#CBD5DC"/>
<path d="M68.225 16.9594C68.225 17.6403 67.8644 18.2933 67.2224 18.7748C66.5804 19.2562 65.7097 19.5267 64.8019 19.5267C63.894 19.5267 63.0233 19.2562 62.3814 18.7748C61.7394 18.2933 61.3788 17.6403 61.3788 16.9594C61.3794 16.2783 61.7405 15.6252 62.3826 15.1435C63.0248 14.6619 63.8956 14.3911 64.8038 14.3906C65.2534 14.3906 65.6985 14.4571 66.1139 14.5862C66.5292 14.7153 66.9065 14.9046 67.2243 15.1432C67.542 15.3817 67.7939 15.6649 67.9657 15.9766C68.1374 16.2882 68.2255 16.6222 68.225 16.9594" fill="#FAAA33"/>
<path d="M55.475 21.5166C57.3673 21.5166 58.9013 20.3661 58.9013 18.9469C58.9013 17.5277 57.3673 16.3772 55.475 16.3772C53.5828 16.3772 52.0488 17.5277 52.0488 18.9469C52.0488 20.3661 53.5828 21.5166 55.475 21.5166Z" fill="#FAAA33"/>
<path d="M71.65 23.7356C71.6487 24.4174 71.2866 25.0709 70.6432 25.5525C69.9998 26.0342 69.1278 26.3046 68.2188 26.3043C67.3219 26.2915 66.4675 26.0153 65.8393 25.535C65.2111 25.0548 64.8592 24.4088 64.8592 23.7361C64.8592 23.0633 65.2111 22.4174 65.8393 21.9371C66.4675 21.4569 67.3219 21.1806 68.2188 21.1678C68.6689 21.1674 69.1147 21.2335 69.5307 21.3624C69.9467 21.4912 70.3249 21.6803 70.6435 21.9187C70.9621 22.1572 71.215 22.4403 71.3877 22.7521C71.5604 23.0638 71.6495 23.398 71.65 23.7356" fill="#FAAA33"/>
<path d="M62.32 25.7194C62.2959 26.3884 61.9246 27.0239 61.2852 27.4907C60.6457 27.9575 59.7886 28.2187 58.8963 28.2187C58.0039 28.2187 57.1468 27.9575 56.5074 27.4907C55.8679 27.0239 55.4966 26.3884 55.4725 25.7194C55.472 25.3818 55.5602 25.0474 55.732 24.7354C55.9038 24.4234 56.1558 24.1398 56.4737 23.9008C56.7917 23.6619 57.1692 23.4722 57.5849 23.3427C58.0006 23.2132 58.4462 23.1463 58.8963 23.1459C59.3464 23.1463 59.792 23.2132 60.2076 23.3427C60.6233 23.4722 61.0008 23.6619 61.3188 23.9008C61.6367 24.1398 61.8887 24.4234 62.0605 24.7354C62.2323 25.0474 62.3205 25.3818 62.32 25.7194" fill="#FAAA33"/>
</g>
<defs>
<clipPath id="clip0">
<rect width="80" height="60" fill="white"/>
</clipPath>
</defs>
</svg>
