<svg width="34" height="34" viewBox="0 0 34 34" fill="none" xmlns="http://www.w3.org/2000/svg">
<path d="M16.9986 2.82342C9.18708 2.82483 2.83192 9.18 2.83192 16.9915C2.83192 24.803 9.18708 31.1582 17 31.1582C24.8101 31.1582 31.1653 24.803 31.1667 16.9915C31.1667 9.18 24.8115 2.82483 16.9986 2.82342V2.82342ZM17 28.3248C10.7497 28.3248 5.66525 23.2404 5.66525 16.9915C5.66525 10.7426 10.7497 5.65817 16.9986 5.65675C23.2489 5.65817 28.3333 10.7426 28.3333 16.9915C28.3319 23.2404 23.2475 28.3248 17 28.3248Z" fill="#E5DA00"/>
<path d="M17 15.5748H11.3333V18.4082H17V22.6667L22.6738 16.9929L17 11.3206V15.5748Z" fill="#E5DA00"/>
</svg>
